<svg width="202" height="194" viewBox="0 0 202 194" fill="none" xmlns="http://www.w3.org/2000/svg"><g filter="url(#filter0_d)" fill="#BDC2D9"><path d="M123.826 41.856c-5.891 0-10.682 4.79-10.682 10.682.001 5.89 4.793 10.68 10.682 10.68s10.682-4.789 10.682-10.68c0-5.89-4.791-10.682-10.682-10.682zM101.063 110.126c-19.243 0-34.838 15.597-34.838 34.835 0 19.24 15.595 34.838 34.838 34.838 19.243 0 34.84-15.598 34.84-34.838 0-19.238-15.597-34.835-34.84-34.835zm19.625 38.964h-15.141v15.53c0 2.492-2.054 4.52-4.547 4.52s-4.547-2.026-4.547-4.52v-15.53H81.375c-2.493 0-4.522-2.053-4.522-4.546 0-2.493 2.028-4.547 4.522-4.547h15.078v-14.692c0-2.491 2.054-4.52 4.547-4.52s4.547 2.028 4.547 4.52v14.692h15.141c2.493 0 4.522 2.054 4.522 4.547s-2.029 4.546-4.522 4.546z"/><path d="M190.439 14.2H11.689C7.51 14.2 4 17.922 4 22.1v115.283c0 4.18 3.51 7.159 7.69 7.159H57.13c0-24.25 19.708-43.928 43.932-43.928 24.225 0 43.933 19.678 43.933 43.928h45.443c4.178 0 7.561-2.981 7.561-7.159V22.101c0-4.18-3.383-7.9-7.561-7.9zM154.696 66.42l-28.659 28.666-43.624-43.618a1.512 1.512 0 00-2.142 0l-27.67 27.668-12.63-12.63c-.592-.593-1.607-.593-2.198 0L17.64 86.583V27.84h166.718V93.95l-27.521-27.531a1.511 1.511 0 00-2.141 0z"/></g><defs><filter id="filter0_d" x="0" y="0" width="202" height="202" filterUnits="userSpaceOnUse" color-interpolation-filters="sRGB"><feFlood flood-opacity="0" result="BackgroundImageFix"/><feColorMatrix in="SourceAlpha" values="0 0 0 0 0 0 0 0 0 0 0 0 0 0 0 0 0 0 127 0"/><feOffset dy="4"/><feGaussianBlur stdDeviation="2"/><feColorMatrix values="0 0 0 0 0 0 0 0 0 0 0 0 0 0 0 0 0 0 0.5 0"/><feBlend in2="BackgroundImageFix" result="effect1_dropShadow"/><feBlend in="SourceGraphic" in2="effect1_dropShadow" result="shape"/></filter></defs></svg>